<?xml version="1.0" standalone="no"?>
<!DOCTYPE svg PUBLIC "-//W3C//DTD SVG 20010904//EN"
 "http://www.w3.org/TR/2001/REC-SVG-20010904/DTD/svg10.dtd">
<svg version="1.0" xmlns="http://www.w3.org/2000/svg"
 width="550.000000pt" height="550.000000pt" viewBox="0 0 550.000000 550.000000"
 preserveAspectRatio="xMidYMid meet">
<metadata>
Created by potrace 1.11, written by Peter Selinger 2001-2013
</metadata>
<g transform="translate(0.000000,550.000000) scale(0.100000,-0.100000)"
fill="#000000" stroke="none">
<path d="M2538 5235 c-2 -1 -32 -5 -68 -8 -61 -6 -76 -8 -142 -23 -54 -11
-180 -65 -231 -97 -232 -150 -334 -392 -293 -692 27 -194 149 -373 316 -460
70 -36 73 -39 48 -46 -40 -11 -148 -67 -199 -105 -97 -71 -177 -178 -234 -312
-19 -45 -32 -82 -30 -82 3 0 0 -12 -5 -26 -23 -61 -32 -243 -17 -348 10 -66
52 -188 84 -245 130 -227 383 -385 671 -419 76 -9 277 -7 322 2 24 6 89 19
100 21 20 4 94 31 139 51 149 69 275 193 355 351 31 63 74 187 81 239 4 22 8
46 10 54 6 21 15 96 20 156 2 27 4 169 4 317 l1 267 193 0 193 0 0 80 -1 80
-192 0 -193 0 0 203 0 203 -85 -1 c-69 0 -85 -3 -86 -15 0 -8 -1 -98 -2 -200
l-2 -185 -375 -2 c-286 -1 -394 2 -454 12 -253 45 -406 163 -462 355 -24 81
-25 88 -25 180 0 184 71 322 218 422 51 35 159 81 218 92 17 4 41 9 55 12 61
13 226 6 321 -15 21 -5 42 -5 48 -2 9 6 63 143 58 148 -1 0 -18 4 -37 7 -19 3
-46 8 -60 11 -64 13 -253 28 -262 20z m757 -1717 c-3 -172 -7 -326 -9 -343
-58 -377 -242 -585 -560 -633 -84 -13 -258 -7 -342 11 -218 47 -392 179 -474
360 -98 217 -63 502 82 673 108 126 278 208 478 230 30 3 57 7 59 9 2 2 176 4
387 5 l383 0 -4 -312z"/>
<path d="M1209 1730 c-36 -679 428 -1292 1091 -1444 159 -36 402 -41 565 -11
129 24 309 90 430 158 190 108 392 299 493 467 l21 35 81 -1 c138 -3 231 29
307 105 114 115 113 278 -4 394 -37 38 -111 79 -163 92 -25 6 -26 7 -25 113
l0 107 -1397 0 c-1237 0 -1398 -2 -1399 -15z m2605 -170 c19 -1 -24 -216 -67
-331 -134 -355 -439 -638 -800 -743 -48 -14 -109 -28 -135 -31 -26 -3 -60 -9
-77 -12 -68 -13 -262 -3 -380 21 -482 96 -876 515 -949 1007 l-13 88 36 3 c27
2 2344 1 2385 -2z m273 -279 c30 -44 22 -76 -28 -123 -30 -28 -51 -38 -90 -43
-28 -4 -53 -5 -55 -2 -3 3 2 20 11 38 10 17 26 58 36 90 11 32 24 70 29 85
l10 26 33 -19 c17 -11 42 -34 54 -52z"/>
</g>
</svg>
