<?xml version="1.0" encoding="UTF-8" standalone="no"?>
<svg width="87px" height="34px" viewBox="0 0 87 34" version="1.1" xmlns="http://www.w3.org/2000/svg" xmlns:xlink="http://www.w3.org/1999/xlink">
    <!-- Generator: Sketch 3.7 (28169) - http://www.bohemiancoding.com/sketch -->
    <title>TM_logo_oranje_pms.eps-7</title>
    <desc>Created with Sketch.</desc>
    <defs></defs>
    <g id="Page-1" stroke="none" stroke-width="1" fill="none" fill-rule="evenodd">
        <g id="Homepagina-3" transform="translate(-1251.000000, -954.000000)">
            <g id="TM_logo_oranje_pms.eps-7" transform="translate(1251.000000, 954.000000)">
                <path d="M48.0454372,13.5242056 C45.8376181,11.369028 42.8460603,10.4703178 39.6573317,10.1822617 C38.9953568,10.1248972 39.0163719,10.5067103 39.0163719,10.5067103 L39.0163719,11.8075888 C39.0386231,12.1931028 39.6573317,12.1918692 39.6573317,12.1918692 C45.2269447,12.1918692 49.4262513,16.4097009 49.4262513,22.0011963 C49.4262513,27.5920748 45.2269447,31.8086729 39.6573317,31.8086729 C34.179196,31.8086729 29.8871759,27.5137383 29.8871759,22.0283364 L29.8871759,22.0011963 L29.8847035,22.0011963 C29.8593618,21.592243 29.6794975,21.5681869 29.3840503,21.5681869 L28.2034975,21.5681869 C27.6911005,21.564486 27.7856683,22.1455327 27.7856683,22.1455327 L27.7930854,22.1455327 C27.8295528,25.3634953 29.0558442,28.3174579 31.268608,30.4763364 C33.475191,32.631514 36.455005,33.8182804 39.6573317,33.8182804 C42.8602764,33.8182804 45.8376181,32.631514 48.0454372,30.4763364 C50.2915779,28.2835327 51.5271407,25.2740561 51.5271407,22.0011963 C51.5271407,18.7277196 50.2915779,15.7170093 48.0454372,13.5242056" id="Fill-4" fill="#E26049"></path>
                <path d="M85.4046784,31.6883925 L81.842005,31.6883925 C79.2899095,31.6883925 77.789804,31.6507664 76.607397,30.8908411 C75.2012412,29.9797944 74.1647035,28.1243925 74.1647035,26.2714579 L74.1647035,20.2019252 C74.1647035,17.6556822 74.2030251,16.1580374 74.9632764,14.9786729 C75.8774322,13.5735514 77.3960804,12.6291963 79.5952462,12.6304299 L79.5952462,12.6291963 L85.4467085,12.6291963 C85.8379598,12.6291963 86.1519497,12.3355888 86.1519497,11.9728972 L86.1519497,11.1247664 C86.1519497,10.7620748 85.8379598,10.4678505 85.4467085,10.4678505 L79.4320704,10.4678505 L79.4258894,10.4678505 L79.4073467,10.4678505 C79.4005477,10.4678505 79.3974573,10.4703178 79.3925126,10.4703178 C76.7038191,10.4906729 74.1399799,11.9821495 73.1108593,14.0133458 C72.3815126,15.273514 72.1169698,16.8772523 72.1095528,20.0699252 C72.1095528,20.0711589 72.1083166,20.0717757 72.1083166,20.0730093 L72.1083166,26.3140187 L72.1064623,26.3140187 C72.1064623,26.3171028 72.1083166,26.3195701 72.1083166,26.3245047 L72.1083166,26.6871963 C72.1083166,26.7161869 72.125005,26.7427103 72.1379849,26.7704673 C72.2980704,29.3086916 73.7116432,31.766729 75.6400854,32.7400748 C76.812603,33.416729 78.2904573,33.6905981 81.0477588,33.7325421 C81.0842261,33.736243 81.1225477,33.7411776 81.1528342,33.7411776 L85.3879899,33.7411776 C85.9455075,33.7411776 86.1519497,33.5135701 86.1519497,33.180486 L86.1519497,32.2904112 C86.1519497,31.8555514 85.8175628,31.6883925 85.4046784,31.6883925" id="Fill-5" fill="#008B98"></path>
                <path d="M85.5765075,20.7071028 L81.4748593,20.7071028 C80.8116482,20.7071028 80.8116482,21.3091215 80.8116482,21.3091215 L80.8116482,22.1381308 C80.8116482,22.4817009 81.0922613,22.7611215 81.4377739,22.7611215 L85.5765075,22.7611215 C85.9220201,22.7611215 86.2020151,22.4817009 86.2020151,22.1381308 L86.2020151,21.3300935 C86.2020151,20.9865234 85.9220201,20.7071028 85.5765075,20.7071028" id="Fill-6" fill="#008B98"></path>
                <path d="M24.4955729,10.3765607 L23.082,10.3765607 C22.8434171,10.3765607 22.6252312,10.5122617 22.5207739,10.7256822 L12.8278794,30.3548224 L3.10717085,10.7256822 C3.00147739,10.5122617 2.78390955,10.3765607 2.54594472,10.3765607 L1.10208543,10.3765607 C0.756572864,10.3765607 0.475341709,10.657215 0.475341709,11.0026355 L0.475341709,33.208243 C0.475341709,33.5530467 0.756572864,33.8337009 1.10208543,33.8337009 L2.0038794,33.8337009 C2.35001005,33.8337009 2.63062312,33.5530467 2.63062312,33.208243 L2.63062312,14.5771215 L11.9965477,33.4845794 C12.1016231,33.6973832 12.319191,33.8337009 12.558392,33.8337009 L13.0689347,33.8337009 C13.3075176,33.8337009 13.5250854,33.6973832 13.631397,33.4845794 L22.9664171,14.5845234 L22.9664171,33.208243 C22.9664171,33.5530467 23.2470302,33.8337009 23.5925427,33.8337009 L24.4955729,33.8337009 C24.8410854,33.8337009 25.1216985,33.5530467 25.1216985,33.208243 L25.1216985,11.0026355 C25.1216985,10.657215 24.8410854,10.3765607 24.4955729,10.3765607" id="Fill-7" fill="#008B98"></path>
                <path d="M67.9399146,22.7598879 C68.9770704,21.401028 69.5512764,19.5721495 69.4814322,17.8672523 C69.4752513,15.1606355 67.9887437,12.4546355 65.9366834,11.4183738 C64.6510553,10.6763364 63.0180603,10.4135701 59.7137487,10.4135701 L54.6336633,10.4135701 C54.2875327,10.4135701 54.0075377,10.6929907 54.0075377,11.0377944 L54.0075377,33.2434019 C54.0075377,33.5882056 54.2875327,33.8688598 54.6336633,33.8688598 L55.5348392,33.8688598 C55.8809698,33.8688598 56.1597286,33.5882056 56.1597286,33.2434019 L56.1597286,12.473757 L59.7137487,12.473757 C62.2732613,12.473757 63.7807839,12.5113832 64.9656633,13.2737757 C66.3792362,14.1879065 67.328005,16.0507103 67.328005,17.9098131 C67.328005,19.6517196 66.7964472,20.9815888 65.6158945,22.2090654 C64.3858945,23.4371589 61.8752111,23.4371589 60.3757236,23.4371589 L59.7440352,23.4371589 C59.5110151,23.4371589 59.2965377,23.5666916 59.1877538,23.7739439 C59.080206,23.9824299 59.0975126,24.232243 59.2334925,24.4234579 L65.7592915,33.6060935 C65.8767286,33.7714019 66.0664824,33.8688598 66.2704523,33.8688598 L67.4120653,33.8688598 C67.6463216,33.8688598 67.8614171,33.7374766 67.9689648,33.5289907 C68.0765126,33.3217383 68.0585879,33.0713084 67.9219899,32.8794766 L62.6002312,25.4356636 C64.6553819,25.2740561 66.4021055,24.7787477 67.9399146,22.7598879" id="Fill-8" fill="#008B98"></path>
                <path d="M14.9714171,0.570934579 C13.0386482,0.570934579 11.5255628,2.11299065 11.5255628,4.09114019 C11.5255628,6.06558879 13.0386482,7.61134579 14.9714171,7.61134579 C16.9035678,7.61134579 18.4172714,6.06558879 18.4172714,4.09114019 C18.4172714,2.11669159 16.9035678,0.570934579 14.9714171,0.570934579 M14.9714171,6.9982243 C13.3946683,6.9982243 12.1597236,5.7251028 12.1597236,4.09114019 C12.1597236,2.43497196 13.3693266,1.18528972 14.9714171,1.18528972 C16.5741256,1.18528972 17.7824925,2.43497196 17.7824925,4.09114019 C17.7824925,5.74792523 16.5741256,6.9982243 14.9714171,6.9982243" id="Fill-9" fill="#E26049"></path>
                <path d="M14.9714171,1.27719626 C13.4206281,1.27719626 12.251201,2.48678505 12.251201,4.09114019 C12.251201,5.67082243 13.4459698,6.90693458 14.9714171,6.90693458 C16.522206,6.90693458 17.6910151,5.69611215 17.6910151,4.09114019 C17.6910151,2.48678505 16.522206,1.27719626 14.9714171,1.27719626 L14.9714171,1.27719626 Z M14.9714171,7.0888972 C13.3433668,7.0888972 12.0682462,5.77321495 12.0682462,4.09114019 C12.0682462,2.38315888 13.3167889,1.094 14.9714171,1.094 C16.6260452,1.094 17.8739698,2.38315888 17.8739698,4.09114019 C17.8739698,5.80097196 16.6260452,7.0888972 14.9714171,7.0888972 L14.9714171,7.0888972 Z M14.9714171,0.662841121 C13.0905678,0.662841121 11.6170402,2.16850467 11.6170402,4.09114019 C11.6170402,6.0137757 13.0905678,7.52128972 14.9714171,7.52128972 C16.8522663,7.52128972 18.325794,6.0137757 18.325794,4.09114019 C18.325794,2.16850467 16.8522663,0.662841121 14.9714171,0.662841121 L14.9714171,0.662841121 Z M14.9714171,7.70325234 C12.9879648,7.70325234 11.4340854,6.11740187 11.4340854,4.09114019 C11.4340854,2.06611215 12.9879648,0.47964486 14.9714171,0.47964486 C16.9548693,0.47964486 18.5093668,2.06611215 18.5093668,4.09114019 C18.5093668,6.11740187 16.9548693,7.70325234 14.9714171,7.70325234 L14.9714171,7.70325234 Z" id="Fill-10" fill="#E26049"></path>
                <path d="M4.29575879,0.684429907 L0.632954774,0.684429907 C0.527879397,0.684429907 0.443201005,0.768934579 0.443201005,0.87317757 L0.443201005,1.10818692 C0.443201005,1.21304673 0.527879397,1.30001869 0.632954774,1.30001869 L2.14665829,1.30001869 L2.14665829,7.3091028 C2.14665829,7.41396262 2.23195477,7.49846729 2.33764824,7.49846729 L2.59106533,7.49846729 C2.6961407,7.49846729 2.78143719,7.41396262 2.78143719,7.3091028 L2.78143719,1.30001869 L4.29575879,1.30001869 C4.40021608,1.30001869 4.48551256,1.21304673 4.48551256,1.10818692 L4.48551256,0.87317757 C4.48551256,0.768934579 4.40021608,0.684429907 4.29575879,0.684429907" id="Fill-11" fill="#E26049"></path>
                <path d="M0.632954774,0.774485981 C0.579180905,0.774485981 0.534678392,0.819514019 0.534678392,0.87317757 L0.534678392,1.10818692 C0.534678392,1.16370093 0.579180905,1.20811215 0.632954774,1.20811215 L2.23813568,1.20811215 L2.23813568,7.3091028 C2.23813568,7.36338318 2.28263819,7.40656075 2.33764824,7.40656075 L2.59106533,7.40656075 C2.64545729,7.40656075 2.6899598,7.36338318 2.6899598,7.3091028 L2.6899598,1.20811215 L4.29575879,1.20811215 C4.35015075,1.20811215 4.39403518,1.16370093 4.39403518,1.10818692 L4.39403518,0.87317757 C4.39403518,0.819514019 4.35015075,0.774485981 4.29575879,0.774485981 L0.632954774,0.774485981 L0.632954774,0.774485981 Z M2.59106533,7.58975701 L2.33764824,7.58975701 C2.18188945,7.58975701 2.0551809,7.46454206 2.0551809,7.3091028 L2.0551809,1.39007477 L0.632954774,1.39007477 C0.47781407,1.39007477 0.351105528,1.26362617 0.351105528,1.10818692 L0.351105528,0.87317757 C0.351105528,0.71835514 0.47781407,0.592523364 0.632954774,0.592523364 L4.29575879,0.592523364 C4.4508995,0.592523364 4.57698995,0.71835514 4.57698995,0.87317757 L4.57698995,1.10818692 C4.57698995,1.26362617 4.4508995,1.39007477 4.29575879,1.39007477 L2.87353266,1.39007477 L2.87353266,7.3091028 C2.87353266,7.46454206 2.74682412,7.58975701 2.59106533,7.58975701 L2.59106533,7.58975701 Z" id="Fill-12" fill="#E26049"></path>
                <path d="M9.86660804,0.684429907 L9.61195477,0.684429907 C9.50749749,0.684429907 9.42158291,0.768934579 9.42158291,0.87317757 L9.42158291,3.76237383 L6.29280905,3.76237383 L6.29280905,0.87317757 C6.29280905,0.768934579 6.20751256,0.684429907 6.1018191,0.684429907 L5.84840201,0.684429907 C5.74270854,0.684429907 5.65741206,0.768934579 5.65741206,0.87317757 L5.65741206,7.3091028 C5.65741206,7.41396262 5.74270854,7.49846729 5.84840201,7.49846729 L6.1018191,7.49846729 C6.20751256,7.49846729 6.29280905,7.41396262 6.29280905,7.3091028 L6.29280905,4.37549533 L9.42158291,4.37549533 L9.42158291,7.3091028 C9.42158291,7.41396262 9.50749749,7.49846729 9.61195477,7.49846729 L9.86660804,7.49846729 C9.97106533,7.49846729 10.057598,7.41396262 10.057598,7.3091028 L10.057598,0.87317757 C10.057598,0.768934579 9.97106533,0.684429907 9.86660804,0.684429907" id="Fill-13" fill="#E26049"></path>
                <path d="M6.20071357,4.28543925 L9.5130603,4.28543925 L9.5130603,7.3091028 C9.5130603,7.36338318 9.55756281,7.40656075 9.61195477,7.40656075 L9.86660804,7.40656075 C9.92161809,7.40656075 9.96550251,7.36338318 9.96550251,7.3091028 L9.96550251,0.87317757 C9.96550251,0.819514019 9.92161809,0.774485981 9.86660804,0.774485981 L9.61195477,0.774485981 C9.55756281,0.774485981 9.5130603,0.819514019 9.5130603,0.87317757 L9.5130603,3.85428037 L6.20071357,3.85428037 L6.20071357,0.87317757 C6.20071357,0.819514019 6.15682915,0.774485981 6.1018191,0.774485981 L5.84840201,0.774485981 C5.79401005,0.774485981 5.74950754,0.819514019 5.74950754,0.87317757 L5.74950754,7.3091028 C5.74950754,7.36338318 5.79401005,7.40656075 5.84840201,7.40656075 L6.1018191,7.40656075 C6.15682915,7.40656075 6.20071357,7.36338318 6.20071357,7.3091028 L6.20071357,4.28543925 L6.20071357,4.28543925 Z M9.86660804,7.58975701 L9.61195477,7.58975701 C9.45681407,7.58975701 9.33010553,7.46454206 9.33010553,7.3091028 L9.33010553,4.46740187 L6.38428643,4.46740187 L6.38428643,7.3091028 C6.38428643,7.46454206 6.25757789,7.58975701 6.1018191,7.58975701 L5.84840201,7.58975701 C5.69264322,7.58975701 5.56593467,7.46454206 5.56593467,7.3091028 L5.56593467,0.87317757 C5.56593467,0.71835514 5.69264322,0.592523364 5.84840201,0.592523364 L6.1018191,0.592523364 C6.25757789,0.592523364 6.38428643,0.71835514 6.38428643,0.87317757 L6.38428643,3.67108411 L9.33010553,3.67108411 L9.33010553,0.87317757 C9.33010553,0.71835514 9.45681407,0.592523364 9.61195477,0.592523364 L9.86660804,0.592523364 C10.0223668,0.592523364 10.1490754,0.71835514 10.1490754,0.87317757 L10.1490754,7.3091028 C10.1490754,7.46454206 10.0223668,7.58975701 9.86660804,7.58975701 L9.86660804,7.58975701 Z" id="Fill-14" fill="#E26049"></path>
                <path d="M37.4427136,3.73585047 L37.3722513,3.71672897 C36.4636583,3.47925234 35.8208442,3.24424299 35.826407,2.39611215 C35.826407,1.69416822 36.3493116,1.18528972 37.070005,1.18528972 C37.7387789,1.18528972 38.1294121,1.54674766 38.265392,2.29001869 C38.2814623,2.38069159 38.3599598,2.44669159 38.4514372,2.44669159 L38.7060905,2.44669159 C38.7604824,2.44669159 38.812402,2.42263551 38.8494874,2.38192523 C38.8853367,2.34059813 38.9026432,2.28631776 38.894608,2.23265421 C38.736995,1.00702804 37.821603,0.570934579 37.0866935,0.570934579 C36.5421558,0.570934579 36.0297588,0.774485981 35.6830101,1.1297757 C35.3498593,1.4708785 35.1798844,1.92547664 35.1928643,2.43990654 C35.1928643,3.79753271 36.3938141,4.10100935 36.9772915,4.24904673 L37.021794,4.26138318 C37.6201055,4.42484112 38.4396935,4.64813084 38.4396935,5.65725234 C38.4396935,6.48502804 37.7202362,6.99699065 37.0533166,6.99699065 C36.8530553,6.99699065 35.8474221,6.93345794 35.6904271,5.65971963 C35.6793015,5.56472897 35.5977136,5.49379439 35.5019095,5.49379439 L35.2466382,5.49379439 C35.1947186,5.49379439 35.1446533,5.51414953 35.1081859,5.55239252 C35.0723367,5.59125234 35.053794,5.64306542 35.0581206,5.6948785 C35.1446533,6.95381308 36.1317437,7.61134579 37.0619698,7.61134579 C38.0292814,7.61134579 39.0750905,6.85142056 39.0750905,5.62271028 C39.0750905,4.1657757 37.8463266,3.84194393 37.4427136,3.73585047" id="Fill-15" fill="#E26049"></path>
                <path d="M35.2466382,5.58385047 C35.2194422,5.58385047 35.1941005,5.59618692 35.1743216,5.61654206 C35.156397,5.63566355 35.1471256,5.66218692 35.1489799,5.68747664 C35.231804,6.8908972 36.1737739,7.52128972 37.0619698,7.52128972 C37.9860151,7.52128972 38.982995,6.7946729 38.982995,5.62271028 C38.982995,4.23609346 37.8061508,3.9264486 37.4192261,3.82405607 L37.3481457,3.80431776 C36.4308995,3.56499065 35.7287487,3.30962617 35.7349296,2.3948785 C35.7349296,1.6411215 36.2967739,1.094 37.070005,1.094 C37.780191,1.094 38.2122362,1.49 38.3556332,2.27459813 C38.3636683,2.32147664 38.4038442,2.35540187 38.4514372,2.35540187 L38.7060905,2.35540187 C38.7345226,2.35540187 38.7617186,2.34306542 38.7814975,2.32024299 C38.798804,2.29988785 38.8074573,2.27213084 38.8037487,2.24560748 C38.6535528,1.07611215 37.7851357,0.662841121 37.0866935,0.662841121 C36.5668794,0.662841121 36.0785879,0.85528972 35.7485276,1.19392523 C35.4320653,1.51652336 35.2719799,1.94829907 35.2837236,2.43743925 C35.2837236,3.72536449 36.3993769,4.00848598 36.9983065,4.1602243 L37.0458995,4.17317757 C37.6392663,4.33478505 38.5317889,4.57904673 38.5317889,5.65725234 C38.5317889,6.5417757 37.7641206,7.0888972 37.0533166,7.0888972 C36.8394573,7.0888972 35.7658342,7.01981308 35.5995678,5.67082243 C35.594005,5.62147664 35.5513568,5.58385047 35.5019095,5.58385047 L35.2466382,5.58385047 L35.2466382,5.58385047 Z M37.0619698,7.70325234 C36.0890955,7.70325234 35.0568844,7.01611215 34.9666432,5.70228037 C34.9604623,5.62641121 34.9876583,5.54930841 35.0408141,5.4913271 C35.0945879,5.43457944 35.1693769,5.40188785 35.2466382,5.40188785 L35.5019095,5.40188785 C35.6440704,5.40188785 35.764598,5.50798131 35.7812864,5.64923364 C35.9290101,6.84525234 36.8666533,6.90570093 37.0533166,6.90570093 C37.6763518,6.90570093 38.3482161,6.42828037 38.3482161,5.65725234 C38.3482161,4.71906542 37.6009447,4.51428037 36.9995427,4.35020561 L36.9531859,4.33725234 C36.352402,4.18551402 35.1007688,3.86723364 35.1007688,2.43990654 C35.0871709,1.90203738 35.265799,1.42646729 35.6168744,1.06624299 C35.9821658,0.693065421 36.5180503,0.47964486 37.0866935,0.47964486 C37.8593065,0.47964486 38.8204372,0.934859813 38.9854673,2.22031776 C38.996593,2.29865421 38.9724874,2.37945794 38.9187136,2.44175701 C38.8624673,2.50343925 38.7858241,2.53859813 38.7060905,2.53859813 L38.4514372,2.53859813 C38.3148392,2.53859813 38.1986382,2.44052336 38.1751508,2.30605607 C38.0465879,1.60349533 37.6955126,1.27719626 37.070005,1.27719626 C36.4024673,1.27719626 35.9178844,1.74659813 35.9178844,2.39611215 C35.9129397,3.18194393 36.4995075,3.39351402 37.3951206,3.62728972 L37.4668191,3.64826168 C37.8871206,3.75743925 39.1665678,4.09484112 39.1665678,5.62271028 C39.1665678,6.90816822 38.0737839,7.70325234 37.0619698,7.70325234 L37.0619698,7.70325234 Z" id="Fill-16" fill="#E26049"></path>
                <path d="M26.6817588,0.684429907 L26.2824724,0.684429907 C26.2095377,0.684429907 26.143402,0.725140187 26.1112613,0.791757009 L23.3910452,6.45233645 L20.6634121,0.791757009 C20.6318894,0.725140187 20.5657538,0.684429907 20.4928191,0.684429907 L20.0848794,0.684429907 C19.979804,0.684429907 19.8945075,0.768934579 19.8945075,0.87317757 L19.8945075,7.3091028 C19.8945075,7.41396262 19.979804,7.49846729 20.0848794,7.49846729 L20.3389146,7.49846729 C20.4439899,7.49846729 20.5292864,7.41396262 20.5292864,7.3091028 L20.5292864,1.96618692 L23.143809,7.39114019 C23.1759497,7.45714019 23.2427035,7.49846729 23.3156382,7.49846729 L23.4602714,7.49846729 C23.533206,7.49846729 23.5987236,7.45714019 23.6314824,7.39114019 L26.2367337,1.96988785 L26.2367337,7.3091028 C26.2367337,7.41396262 26.3226482,7.49846729 26.4271055,7.49846729 L26.6817588,7.49846729 C26.7868342,7.49846729 26.8721307,7.41396262 26.8721307,7.3091028 L26.8721307,0.87317757 C26.8721307,0.768934579 26.7868342,0.684429907 26.6817588,0.684429907" id="Fill-17" fill="#E26049"></path>
                <path d="M26.3282111,1.5671028 L26.3282111,7.3091028 C26.3282111,7.36338318 26.3727136,7.40656075 26.4271055,7.40656075 L26.6817588,7.40656075 C26.7361508,7.40656075 26.7806533,7.36338318 26.7806533,7.3091028 L26.7806533,0.87317757 C26.7806533,0.819514019 26.7361508,0.774485981 26.6817588,0.774485981 L26.2824724,0.774485981 C26.2447688,0.774485981 26.2107739,0.796074766 26.1947035,0.831233645 L23.3916633,6.66452336 L20.5805879,0.831233645 C20.5645176,0.796074766 20.5305226,0.774485981 20.4928191,0.774485981 L20.0848794,0.774485981 C20.0304874,0.774485981 19.9859849,0.819514019 19.9859849,0.87317757 L19.9859849,7.3091028 C19.9859849,7.36338318 20.0304874,7.40656075 20.0848794,7.40656075 L20.3389146,7.40656075 C20.3933065,7.40656075 20.437809,7.36338318 20.437809,7.3091028 L20.437809,1.56525234 L23.2260151,7.35104673 C23.2433216,7.38497196 23.2773166,7.40656075 23.3156382,7.40656075 L23.4602714,7.40656075 C23.4979749,7.40656075 23.5325879,7.38497196 23.5498945,7.34981308 L26.3282111,1.5671028 L26.3282111,1.5671028 Z M26.6817588,7.58975701 L26.4271055,7.58975701 C26.2719648,7.58975701 26.1452563,7.46454206 26.1452563,7.3091028 L26.1452563,2.37082243 L23.7143065,7.43061682 C23.6648593,7.52930841 23.5678191,7.58975701 23.4602714,7.58975701 L23.3156382,7.58975701 C23.2068543,7.58975701 23.109196,7.52930841 23.061603,7.43185047 L20.6207638,2.3671215 L20.6207638,7.3091028 C20.6207638,7.46454206 20.4946734,7.58975701 20.3389146,7.58975701 L20.0848794,7.58975701 C19.9297387,7.58975701 19.8030302,7.46454206 19.8030302,7.3091028 L19.8030302,0.87317757 C19.8030302,0.71835514 19.9297387,0.592523364 20.0848794,0.592523364 L20.4928191,0.592523364 C20.6022211,0.592523364 20.6992613,0.654205607 20.7462362,0.752897196 L23.3910452,6.242 L26.0290553,0.751663551 C26.074794,0.655439252 26.1743065,0.592523364 26.2824724,0.592523364 L26.6817588,0.592523364 C26.8368995,0.592523364 26.9642261,0.71835514 26.9642261,0.87317757 L26.9642261,7.3091028 C26.9642261,7.46454206 26.8368995,7.58975701 26.6817588,7.58975701 L26.6817588,7.58975701 Z" id="Fill-18" fill="#E26049"></path>
                <path d="M31.4453819,0.801009346 C31.4163317,0.730074766 31.3464874,0.684429907 31.2692261,0.684429907 L30.9397839,0.684429907 C30.8625226,0.684429907 30.7926784,0.730074766 30.7642462,0.801009346 L28.0761709,7.23693458 C28.0514472,7.29491589 28.0582462,7.36091589 28.0928593,7.41396262 C28.1287085,7.46700935 28.1874271,7.49846729 28.2523266,7.49846729 L28.5224322,7.49846729 C28.6003116,7.49846729 28.6689196,7.45220561 28.6985879,7.38250467 L29.5904925,5.25508411 L32.6191357,5.25508411 L33.5104221,7.38250467 C33.5407085,7.45220561 33.6093166,7.49846729 33.6865779,7.49846729 L33.9573015,7.49846729 C34.0203467,7.49846729 34.0796834,7.46700935 34.1161508,7.41396262 C34.1501457,7.36091589 34.1575628,7.29491589 34.1328392,7.23693458 L31.4453819,0.801009346 L31.4453819,0.801009346 Z M29.8581256,4.64072897 L31.1004874,1.61706542 L32.3496482,4.64072897 L29.8581256,4.64072897 L29.8581256,4.64072897 Z" id="Fill-19" fill="#E26049"></path>
                <path d="M29.9941055,4.54882243 L32.2130503,4.54882243 L31.1004874,1.85639252 L29.9941055,4.54882243 L29.9941055,4.54882243 Z M32.4868643,4.73201869 L29.7215276,4.73201869 L31.0998693,1.37588785 L32.4868643,4.73201869 L32.4868643,4.73201869 Z M29.5293015,5.16379439 L32.6803266,5.16379439 L33.5951005,7.34796262 C33.6105528,7.38373832 33.646402,7.40656075 33.6865779,7.40656075 L33.9573015,7.40656075 C33.9900603,7.40656075 34.0215829,7.39114019 34.0407437,7.36214953 C34.0574322,7.33685981 34.0611407,7.30170093 34.0487789,7.27271028 L31.3607035,0.836168224 C31.3452513,0.798542056 31.309402,0.775719626 31.2692261,0.775719626 L30.9397839,0.775719626 C30.8989899,0.775719626 30.8631407,0.798542056 30.8489246,0.834934579 L28.1608492,7.27209346 C28.1478693,7.30170093 28.1515779,7.33685981 28.1695025,7.36338318 C28.1880452,7.39114019 28.2183317,7.40656075 28.2523266,7.40656075 L28.5224322,7.40656075 C28.5632261,7.40656075 28.5990754,7.38373832 28.6139095,7.34796262 L29.5293015,5.16379439 L29.5293015,5.16379439 Z M33.9573015,7.58975701 L33.6865779,7.58975701 C33.5728492,7.58975701 33.4708643,7.52252336 33.4263618,7.4188972 L32.5579447,5.34637383 L29.6510653,5.34637383 L28.7826482,7.41766355 C28.7393819,7.52252336 28.637397,7.58975701 28.5224322,7.58975701 L28.2523266,7.58975701 C28.1577588,7.58975701 28.0699899,7.54411215 28.0174523,7.4657757 C27.9649146,7.38620561 27.9556432,7.28751402 27.9914925,7.2017757 L30.6795678,0.765233645 C30.721598,0.661607477 30.8235829,0.592523364 30.9397839,0.592523364 L31.2692261,0.592523364 C31.384191,0.592523364 31.486794,0.661607477 31.5300603,0.76646729 L34.2168995,7.20054206 C34.2533668,7.28628037 34.2447136,7.38497196 34.192794,7.46454206 C34.1377839,7.54411215 34.0506332,7.58975701 33.9573015,7.58975701 L33.9573015,7.58975701 Z" id="Fill-20" fill="#E26049"></path>
            </g>
        </g>
    </g>
</svg>